<?xml version="1.0" encoding="UTF-8"?>
<svg id="Layer_2" data-name="Layer 2" xmlns="http://www.w3.org/2000/svg" viewBox="0 0 230.22 255.39">
  <defs>
    <style>
      .cls-1 {
        fill: #f0f;
        stroke: #000;
        stroke-miterlimit: 10;
        stroke-width: 5px;
      }
    </style>
  </defs>
  <g id="Backs">
    <g id="back1">
      <path class="cls-1" d="M31.5,84.78c-9.79,28.34-40.35,109.89-23.28,115.79,17.07,5.9,29.48-81.93,39.27-110.27,9.79-28.34,25.64-63.85,21.4-65.31-4.24-1.47-27.59,31.45-37.38,59.79Z"/>
      <path class="cls-1" d="M44.18,128.59c-5.88,29.4-25.17,114.33-7.46,117.87,17.71,3.54,18.16-85.16,24.04-114.55,5.88-29.4,16.8-66.72,12.4-67.6s-23.1,34.89-28.98,64.28Z"/>
      <path class="cls-1" d="M65.78,134.59c-2.9,29.84-13.57,116.28,4.41,118.03,17.98,1.75,9.53-86.55,12.43-116.39,2.9-29.84,10.02-68.07,5.55-68.5s-19.49,37.03-22.39,66.87Z"/>
      <path class="cls-1" d="M199.35,95.7c9.79,28.34,40.35,109.89,23.28,115.79-17.07,5.9-29.48-81.93-39.27-110.27-9.79-28.34-25.64-63.85-21.4-65.31s27.59,31.45,37.38,59.79Z"/>
      <path class="cls-1" d="M180.21,123.74c6.33,29.3,26.92,113.93,9.27,117.74-17.65,3.81-19.47-84.87-25.8-114.17-6.33-29.3-17.82-66.45-13.43-67.4,4.39-.95,23.63,34.53,29.97,63.83Z"/>
      <path class="cls-1" d="M157.45,135.09c1.83,29.92,9.4,116.69-8.63,117.79-18.03,1.1-6.42-86.84-8.25-116.76s-7.57-68.38-3.09-68.66c4.48-.27,18.15,37.7,19.98,67.62Z"/>
      <path class="cls-1" d="M35.18,40.61C25.21,59.08-4.87,112.11,4.17,116.99c9.04,4.88,29.51-53.34,39.48-71.81S68.2,3.76,65.95,2.55s-20.8,19.59-30.77,38.06Z"/>
    </g>
  </g>
</svg>