<?xml version="1.0" encoding="UTF-8"?>
<svg id="Layer_2" data-name="Layer 2" xmlns="http://www.w3.org/2000/svg" viewBox="0 0 248.16 191.86">
  <defs>
    <style>
      .cls-1 {
        fill: #f0f;
        stroke: #000;
        stroke-miterlimit: 10;
        stroke-width: 5px;
      }
    </style>
  </defs>
  <g id="Backs">
    <path id="back4" class="cls-1" d="M27.47,22.62c-5.32,3.45-24.24,17.52-5.25,32.21,1.83,1.42,1.81,4.18-.08,5.52-11.13,7.86-38.26,31.23.52,50.08,1.84.9,2.49,3.22,1.37,4.94-7.02,10.76-25.27,44.25,21.47,41.92,1.82-.09,3.41,1.23,3.6,3.05.84,7.88,6.17,26.58,38.53,17.88,1.24-.33,2.57.06,3.42,1.02,4.83,5.45,22.04,21.51,39.24-3.42,1.13-1.64,3.42-1.96,4.98-.71,7.52,6.02,35.82,19.82,45.42-10.83.67-2.12,3.12-3.09,5.03-1.95,10.08,6.05,52.09,14.13,35.92-29.34-.64-1.72,1.12-3.46,2.94-3.71,9.93-1.33,35.55-4.74,10.23-38.53-1.13-1.51-.81-3.64.69-4.77,7.95-5.96,18.28-22.17-7.37-32.11-2.11-.82-2.89-3.44-1.52-5.24,4.91-6.45,11.84-19.76-7.85-26.26-1.08-.36-1.92-1.23-2.22-2.32-1.57-5.7-8.13-22.83-29.16-15.93-.34.11-.7.17-1.06.17H56.44c-.39,0-.77-.06-1.13-.19-3.42-1.22-22.91-7.08-26.34,16.18-.14.96-.69,1.81-1.5,2.34Z"/>
  </g>
</svg>