<?xml version="1.0" encoding="UTF-8"?>
<svg id="Layer_2" data-name="Layer 2" xmlns="http://www.w3.org/2000/svg" viewBox="0 0 280.4 160.97">
  <defs>
    <style>
      .cls-1 {
        fill: #f0f;
        stroke: #000;
        stroke-miterlimit: 10;
        stroke-width: 5px;
      }
    </style>
  </defs>
  <g id="Backs">
    <path id="back7" class="cls-1" d="M274.98,95.64c-29.9,7.81-34.73-44.76-34.73-44.76C251.87-10.39,140.2,3.96,140.2,3.96c0,0-111.68-14.35-100.06,46.92,0,0-4.83,52.57-34.73,44.76,0,0,16.56,26.77,39.37,23.56,0,0-5.4,18.92-18.67,21.02,0,0,50.28,35.24,114.09,7.81,63.81,27.43,114.09-7.81,114.09-7.81-13.27-2.1-18.67-21.02-18.67-21.02,22.81,3.22,39.37-23.56,39.37-23.56Z"/>
  </g>
</svg>