<?xml version="1.0" encoding="UTF-8"?>
<svg id="Layer_2" data-name="Layer 2" xmlns="http://www.w3.org/2000/svg" viewBox="0 0 264.48 182.42">
  <defs>
    <style>
      .cls-1 {
        fill: #f0f;
        stroke: #000;
        stroke-miterlimit: 10;
        stroke-width: 5px;
      }
    </style>
  </defs>
  <g id="Backs">
    <path id="back2" class="cls-1" d="M250.98,133.12c6.37-2.02,11-7.98,11-15.02,0-8.71-7.06-15.76-15.76-15.76-2.51,0-4.87.6-6.97,1.64-.06-8.65-7.09-15.64-15.76-15.64s-15.76,7.06-15.76,15.76c0,.07,0,.14.01.21-2.26-1.25-4.86-1.97-7.62-1.97-1.04,0-2.06.11-3.04.3.91-4.91.91-10.33-.24-16.34,0,0,33.04-54.45.9-83.8H16.55c-32.14,29.35.9,83.8.9,83.8-11.43,59.81,89.69,62.1,89.69,62.1,0,0,53.4-1.22,78.2-24.83,2.22,6.01,7.99,10.3,14.77,10.3,8.71,0,15.76-7.06,15.76-15.76,0-.07,0-.14-.01-.21,2.26,1.25,4.86,1.97,7.62,1.97,2.51,0,4.87-.6,6.97-1.64.04,5,2.41,9.44,6.08,12.3-8.23,2.01-12.48,10.34-15.76,19.23-3.83,10.37-3.5,30.17,3.54,30.17s35.84-19.3,35.84-30.17c0-7-3.67-13.14-9.17-16.63Z"/>
  </g>
</svg>