<?xml version="1.0" encoding="UTF-8"?>
<svg id="Layer_2" data-name="Layer 2" xmlns="http://www.w3.org/2000/svg" viewBox="0 0 287.7 239">
  <defs>
    <style>
      .cls-1 {
        fill: #f0f;
        stroke: #000;
        stroke-miterlimit: 10;
        stroke-width: 5px;
      }
    </style>
  </defs>
  <g id="Bangs">
    <g id="bangs2">
      <path class="cls-1" d="M200.4,231.51s-4.71-59.56,14.34-86.22l6.35,1.27s10.04,37.97-20.69,84.95Z"/>
      <path class="cls-1" d="M14.33,163.57s-10.89,53.74,13.76,70.3c0,0,17.03-34.11-3.54-70.3,0,0,25.52-8.38,31.62-44.19,0,0,.76,34.67,0,38.1s17.14,8.38,30.48-38.1l-8.76,41.3s38.61-4.35,36.45-37.49c0,0,23.74,23.24,10.79,55.24,0,0,43.05-6.86,34.67-56.76,0,0,41.14,24,36.19,41.9,0,0,23.55-7.75,13.11-53.4,0,0,8.16,40.45,2.67,67.49,0,0,43.27-32.38,20.79-77.71l31.62,30.1s4.19-28.19-24.76-57.52l44.57-11.49s-21.96-40.32-69.65-15.56l30.98-35.05s-53.9-29.94-80.95,26.55c0,0-78.73-42.3-121.4,18.4,0,0-66.92,47.05-28.63,108.19Z"/>
    </g>
  </g>
</svg>