<?xml version="1.0" encoding="UTF-8"?>
<svg id="Layer_2" data-name="Layer 2" xmlns="http://www.w3.org/2000/svg" viewBox="0 0 272.45 272.32">
  <defs>
    <style>
      .cls-1 {
        fill: #f0f;
        stroke: #000;
        stroke-miterlimit: 10;
        stroke-width: 5px;
      }
    </style>
  </defs>
  <g id="Layer_12" data-name="Layer 12">
    <g id="bangs8">
      <path class="cls-1" d="M215.24,90.07s18.65,72.41,0,98.31c0,0-31.22,38.72-28.55,56.38l6.98-6.03s-13.59,19.3-5.46,30.86c0,0,29.71-5.07,40.51-36s18.54-121.9,8.38-156.44c-10.16-34.54-33.82-.56-21.86,12.93Z"/>
      <path class="cls-1" d="M57.21,90.07s-18.65,72.41,0,98.31c0,0,31.22,38.72,28.55,56.38l-6.98-6.03s13.59,19.3,5.46,30.86c0,0-29.71-5.07-40.51-36s-18.54-121.9-8.38-156.44c10.16-34.54,33.82-.56,21.86,12.93Z"/>
      <path class="cls-1" d="M248.95,89.05s7.72-114.29-112.73-80.19C15.78-25.25,23.49,89.05,23.49,89.05l-19.72,6.97s9,14.37,59.58,15.13,72.87-48.76,72.87-48.76c0,0,22.29,49.52,72.87,48.76,50.58-.76,59.58-15.13,59.58-15.13l-19.72-6.97Z"/>
    </g>
  </g>
</svg>