<?xml version="1.0" encoding="UTF-8"?>
<svg id="Layer_2" data-name="Layer 2" xmlns="http://www.w3.org/2000/svg" viewBox="0 0 253.37 216.51">
  <defs>
    <style>
      .cls-1 {
        fill: #f0f;
        stroke: #000;
        stroke-miterlimit: 10;
        stroke-width: 5px;
      }
    </style>
  </defs>
  <g id="Bangs">
    <path id="bangs3" class="cls-1" d="M54.38,40.63c3.89-8.75,12.86-21.49,31.25-16.96.99.25,2.04-.09,2.71-.86,6.87-7.93,44.5-47.47,65.19,11.57.59,1.69,2.6,2.4,4.1,1.42,12.02-7.83,56.75-32.71,58.35,30.04.03,1.18.84,2.19,1.97,2.54,2.92.88,7.98,3.25,6.49,8.89-.41,1.54.64,3.08,2.2,3.41,9.56,2,34.95,10.29,17.04,40.11-.57.95-.51,2.16.16,3.05,4.36,5.79,18.09,27.72-11.19,41.92-1.05.51-1.66,1.63-1.52,2.78.97,8.02,3.58,38.26-10.93,44.52-16.48,7.12-2.4-27.73-6.26-39.78-.12-.39-.35-.73-.64-1.02-1.95-1.94-9.82-10.39-7.54-18.32.52-1.8-.9-3.59-2.77-3.48-6.55.36-17.23-.89-17.6-12.77-.06-1.96-2.04-3.24-3.84-2.47-4.48,1.92-12.36,1.81-23.4-11.2-1.01-1.19-2.8-1.34-3.96-.28-4.8,4.38-17.99,12.8-37.41-3.02-1.29-1.05-3.21-.7-4.07.72-3.94,6.55-15.04,21.41-30.4,12.77-1.61-.9-3.65-.02-4.04,1.78-1.44,6.76-6.38,19.26-23.04,16.23-1.61-.29-3.16.82-3.27,2.44-.22,3.15-1.71,7.26-8.25,5.96-1.91-.38-3.63,1.2-3.32,3.12,2,12.43,6.23,46.49-8.77,40.55s-10.07-38.5-8.15-47.54c.28-1.33-.44-2.65-1.71-3.14-8.3-3.22-35.38-16.82-5.73-48.71.66-.71.92-1.72.65-2.65-2.38-8.11-11.68-46.99,27.1-53.34,4.71-.77,8.65-3.92,10.59-8.28Z"/>
  </g>
</svg>