<?xml version="1.0" encoding="UTF-8"?>
<svg id="Layer_2" data-name="Layer 2" xmlns="http://www.w3.org/2000/svg" viewBox="0 0 229.38 163.27">
  <defs>
    <style>
      .cls-1 {
        fill: #f0f;
        stroke: #000;
        stroke-miterlimit: 10;
        stroke-width: 5px;
      }
    </style>
  </defs>
  <g id="Bangs">
    <path id="bangs5" class="cls-1" d="M16,137.99l11.27-36.27c.07-.23.22-.43.43-.56,2.27-1.45,16.69-11.44,32.68-40.7.15-.28.41-.47.72-.53,5.05-.92,48.42-9.09,62.98-19.62.39-.28.9-.27,1.27.02,5.3,4.28,42.77,34.07,53.32,30.11.65-.24,1.37.12,1.45.81.7,5.47,4.29,23.73,21.5,33.96.27.16.46.44.5.76l3.94,30.43s5.77,59,10.85-6.61c0-.04,0-.09,0-.13l-3.27-76.61c-.02-.46.26-.87.69-1.02,3.45-1.24,17.86-7.34,10.46-20.58-7.86-14.05-34.02-17.6-39.56-11.3-.47.53-1.3.51-1.67-.11-3.9-6.51-21.21-30.97-49.26-7.72-.39.32-.96.33-1.34,0-4.28-3.69-28.75-22.64-46.71,9.33-.33.58-1.09.73-1.59.29-5.62-4.9-34.6-27.65-48.01,11.39-.17.5-.68.8-1.2.69-6.13-1.33-41.24-7.48-31.14,29.29.02.08.03.16.04.25l1.33,61.74s0,.06,0,.08c.2,1.88,7.27,68.14,10.27,12.85,0-.09.02-.17.05-.25Z"/>
  </g>
</svg>