<?xml version="1.0" encoding="UTF-8"?>
<svg id="Layer_2" data-name="Layer 2" xmlns="http://www.w3.org/2000/svg" viewBox="0 0 225.16 263.57">
  <defs>
    <style>
      .cls-1 {
        fill: #f0f;
        stroke: #000;
        stroke-miterlimit: 10;
        stroke-width: 5px;
      }
    </style>
  </defs>
  <g id="Layer_12" data-name="Layer 12">
    <path id="bangs10" class="cls-1" d="M212.79,78.5c-1.38-5.11-2.42-10.32-3.07-15.57C203.98,16.79,157.43,2.5,112.58,2.5S21.18,16.79,15.44,62.93c-.65,5.25-1.7,10.46-3.07,15.57-9.62,35.69-22.55,112.84,17.97,180.2,1.23,2.04,3.74,2.92,5.94,2.02,7.97-3.27,23.66-14.03,3.72-44.84-25.65-39.62-18.04-49.14-12.43-61.33,3.36-7.3,8.31-23.09,17.94-34.49.88-1.04,2.45-1.18,3.48-.3,15.87,13.64,38.48,22.17,63.58,22.17s47.71-8.53,63.58-22.17c1.03-.89,2.61-.74,3.48.3,9.63,11.4,14.58,27.19,17.94,34.49,5.61,12.19,13.22,21.71-12.43,61.33-19.94,30.81-4.25,41.57,3.72,44.84,2.2.9,4.72.02,5.94-2.02,40.52-67.36,27.59-144.51,17.97-180.2Z"/>
  </g>
</svg>