<?xml version="1.0" encoding="UTF-8"?>
<svg id="Layer_2" data-name="Layer 2" xmlns="http://www.w3.org/2000/svg" viewBox="0 0 232.44 264.03">
  <defs>
    <style>
      .cls-1 {
        fill: #f0f;
        stroke: #000;
        stroke-miterlimit: 10;
        stroke-width: 5px;
      }
    </style>
  </defs>
  <g id="Layer_12" data-name="Layer 12">
    <path id="bangs9" class="cls-1" d="M122.77,2.56c-4.37.15-8.73.15-13.1,0C85.47,1.75,2.5,8.01,2.5,131.99c0,145.14,85.63,129.01,113.72,129.01s113.72,16.14,113.72-129.01C229.94,8.01,146.97,1.75,122.77,2.56ZM106.2,237.16c-21.43-4.91-70.87-23.29-84.35-89.56-4.13-20.31,6.59-40.81,25.62-49.03,15.58-6.73,38.03-12.67,68.74-12.67s53.17,5.94,68.74,12.67c19.03,8.22,29.75,28.72,25.62,49.03-13.48,66.27-62.92,84.65-84.35,89.56-6.6,1.51-13.43,1.51-20.03,0Z"/>
  </g>
</svg>