<?xml version="1.0" encoding="UTF-8"?>
<svg id="Layer_2" data-name="Layer 2" xmlns="http://www.w3.org/2000/svg" viewBox="0 0 71.09 72.23">
  <g id="Eyebrows">
    <g id="brow4">
      <path d="M5.01,69.73c.03-.25.06-.5.09-.75.04-.3.07-.6.11-.9.02-.18.05-.36.07-.54.11-.86-.07.52.01-.1.35-2.51.74-5.01,1.18-7.51,1.36-7.72,3.13-15.39,5.5-22.87.67-2.11,1.38-4.2,2.16-6.26.39-1.03.79-2.06,1.21-3.07.09-.21.32-.76.1-.25.11-.25.22-.5.32-.75.23-.53.46-1.05.7-1.57,1.71-3.72,3.69-7.35,6.12-10.65.15-.2.29-.39.44-.59.22-.29-.39.49-.04.06.07-.08.13-.17.2-.25.3-.37.6-.75.92-1.11.61-.71,1.25-1.4,1.92-2.05s1.33-1.22,2.03-1.81c.47-.4-.23.16.08-.07.18-.13.35-.26.53-.39.37-.27.76-.53,1.15-.77.73-.46,1.48-.87,2.26-1.23.17-.08.35-.15.52-.23-.71.32-.12.05.06-.01.42-.15.84-.31,1.27-.44.83-.25,1.66-.4,2.5-.56-.2.04-.43.04.13-.01.19-.02.39-.04.58-.05.44-.03.89-.05,1.33-.04s.91.02,1.36.05c.21.02.41.04.62.06.69.06-.41-.09.27.03.98.17,1.94.37,2.89.65.5.15,1,.31,1.5.49.23.08.45.17.68.25.11.04.23.09.34.14.59.23-.5-.22.09.04,1.08.48,2.14,1.01,3.17,1.59,1.13.64,2.24,1.34,3.31,2.08.51.35,1.02.72,1.51,1.09.6.45.78.59,1.52,1.2,2.56,2.09,4.95,4.38,7.23,6.77,1.33,1.4,2.62,2.84,3.88,4.3.88,1.02,2.63.91,3.54,0,1.01-1.01.88-2.51,0-3.54-4.54-5.26-9.51-10.24-15.25-14.2-3.9-2.68-8.35-4.94-13.07-5.67-8.17-1.28-15.53,2.19-20.95,8.22-5.93,6.59-9.68,14.96-12.6,23.24s-4.8,16.02-6.36,24.22c-.55,2.9-1.04,5.81-1.47,8.73-.23,1.6-.57,3.25-.64,4.87,0,.06-.01.13-.02.19-.14,1.34,1.25,2.5,2.5,2.5,1.47,0,2.36-1.15,2.5-2.5h0Z"/>
    </g>
  </g>
</svg>