<?xml version="1.0" encoding="UTF-8"?>
<svg id="Layer_2" data-name="Layer 2" xmlns="http://www.w3.org/2000/svg" viewBox="0 0 67.85 38.12">
  <g id="Eyebrows">
    <g id="brow1">
      <path d="M4.61,36.9c.51-1.13,1.15-2.2,1.81-3.25.74-1.19,1.53-2.34,2.37-3.46.13-.18.27-.35.4-.53.25-.33-.34.43.08-.1.28-.36.56-.71.85-1.06.62-.76,1.27-1.5,1.93-2.23,1.49-1.64,3.07-3.19,4.72-4.65.94-.83,1.9-1.63,2.89-2.41.38-.3.12-.09.04-.03.12-.09.25-.19.37-.28.25-.19.5-.38.75-.56.58-.43,1.17-.84,1.77-1.25,5.16-3.52,10.65-6.18,16.45-8.1,8.52-2.81,17.44-3.98,26.4-4C68.65,4.99,68.66,0,65.43,0c-15.15.03-30.47,3.35-43.4,11.48-7.64,4.8-14.38,11.16-19.34,18.72-.88,1.34-1.75,2.72-2.4,4.18-.55,1.23-.35,2.69.9,3.42,1.07.63,2.86.34,3.42-.9h0Z"/>
    </g>
  </g>
</svg>