<?xml version="1.0" encoding="UTF-8"?>
<svg id="Layer_2" data-name="Layer 2" xmlns="http://www.w3.org/2000/svg" viewBox="0 0 59.4 51.5">
  <g id="Eyebrows">
    <g id="brow3">
      <path d="M3.12,5.24c.2-.05.41-.06.62-.11.43-.09-.83.08-.25.04.12,0,.23-.03.35-.04.34-.03.68-.06,1.02-.07.85-.04,1.7-.02,2.55.06.26.02.51.06.77.08.51.04-.64-.12-.13-.02.09.02.18.03.27.04.57.1,1.14.21,1.7.36s1.1.31,1.64.5c.31.11.61.23.92.35-.68-.28.32.16.49.24.59.29,1.16.61,1.71.96.32.2.63.41.93.63.13.09.26.19.39.28.14.11.1.08-.12-.09.1.08.21.16.31.25,2.86,2.46,4.52,4.85,6.11,8.41,2.07,4.63,2.65,10.13,3.56,15.29.76,4.35,2.16,8.82,4.85,12.39,3.91,5.19,9.94,7.38,16.31,6.57,3.83-.49,7.75-1.71,11.09-3.68,2.77-1.63.26-5.96-2.52-4.32-.78.46-1.6.83-2.42,1.2-.7.31.45-.17-.13.06-.19.07-.38.15-.57.22-.5.19-1,.37-1.5.53-1.09.36-2.21.65-3.34.87-.26.05-.52.09-.79.14-.16.03-.72.08.02,0-.16.02-.32.04-.49.06-.66.06-1.32.11-1.99.11-.62,0-1.24-.04-1.85-.09-.73-.06.38.09-.35-.05-.4-.08-.79-.15-1.18-.25-.28-.07-.56-.15-.84-.24-.16-.05-.99-.36-.7-.24s-.53-.25-.68-.33c-.33-.17-.65-.35-.96-.55s-.63-.42-.94-.65c.48.37-.27-.24-.4-.36-.62-.56-1.2-1.18-1.71-1.84.26.34-.42-.61-.53-.79-.22-.34-.43-.68-.62-1.03-.49-.87-.94-1.84-1.2-2.53-.89-2.33-1.46-4.77-1.85-7.23-.46-2.88-.77-5.76-1.48-8.6-.61-2.46-1.43-4.85-2.47-7.16-2.79-6.24-7.71-11.42-14.32-13.52C9.09,0,5.21-.36,1.79.41-1.35,1.12-.02,5.95,3.12,5.24h0Z"/>
    </g>
  </g>
</svg>