<?xml version="1.0" encoding="UTF-8"?>
<svg id="Layer_2" data-name="Layer 2" xmlns="http://www.w3.org/2000/svg" viewBox="0 0 87.9 79.58">
  <defs>
    <style>
      .cls-1 {
        fill: #fff;
        stroke: #000;
        stroke-miterlimit: 10;
        stroke-width: 5px;
      }

      .cls-2 {
        fill: #f0f;
      }
    </style>
  </defs>
  <g id="Eyes">
    <g id="eye2">
      <g id="eye1">
        <circle class="cls-1" cx="51.5" cy="36.4" r="33.9"/>
        <circle class="cls-2" cx="64.36" cy="36.4" r="19.05"/>
      </g>
      <path d="M4.53,61.32c5.21-1.97,10.41-3.94,15.62-5.9,4.47-1.69,2.53-8.94-1.99-7.23-5.21,1.97-10.41,3.94-15.62,5.9C-1.94,55.78,0,63.03,4.53,61.32h0Z"/>
      <path d="M32.48,77.76c1.34-2.97,2.69-5.94,4.03-8.91.83-1.84.53-4.03-1.35-5.13-1.61-.94-4.29-.51-5.13,1.35-1.34,2.97-2.69,5.94-4.03,8.91-.83,1.84-.53,4.03,1.35,5.13,1.61.94,4.29.51,5.13-1.35h0Z"/>
      <path d="M15.8,73.5c3.58-3.13,7.15-6.25,10.73-9.38s-1.68-8.47-5.3-5.3-7.15,6.25-10.73,9.38,1.68,8.47,5.3,5.3h0Z"/>
    </g>
  </g>
</svg>