<?xml version="1.0" encoding="UTF-8"?>
<svg id="Layer_2" data-name="Layer 2" xmlns="http://www.w3.org/2000/svg" viewBox="0 0 196.35 272.71">
  <defs>
    <style>
      .cls-1 {
        fill: #f0f;
      }
    </style>
  </defs>
  <g id="Heads">
    <g id="head5">
      <path class="cls-1" d="M67.05,270.21c-6.95,0-19.35-8.15-31.38-26.37-7.48-11.33-20.27-35.27-21.95-68.38-.29-5.72-1-11.36-2.12-16.76l-6.94-33.67C-2.99,87.83,9.81,49.68,38.06,25.48,55.61,10.44,76.39,2.5,98.18,2.5s42.57,7.94,60.11,22.98c28.26,24.21,41.05,62.35,33.39,99.54l-6.93,33.67c-1.11,5.41-1.83,11.05-2.12,16.76-1.68,33.12-14.47,57.06-21.95,68.38-12.02,18.22-24.42,26.37-31.38,26.37h-62.25Z"/>
      <path d="M98.18,5c21.18,0,41.4,7.74,58.49,22.37,27.57,23.62,40.04,60.84,32.57,97.14l-6.94,33.67c-1.14,5.53-1.87,11.3-2.16,17.14-2.82,55.56-37.52,92.38-50.83,92.38h-62.25c-13.31,0-48.01-36.82-50.83-92.38-.3-5.85-1.02-11.61-2.16-17.14l-6.94-33.67C-.35,88.21,12.13,50.99,39.69,27.37,56.77,12.74,77,5,98.18,5M98.18,0c-23.3,0-44.74,9.01-61.74,23.58C7.24,48.59-5.53,87.86,2.23,125.52l6.94,33.67c1.11,5.4,1.79,10.88,2.07,16.39,2.85,56.19,38.16,97.13,55.82,97.13h62.25c17.66,0,52.97-40.94,55.82-97.13.28-5.51.95-10.99,2.07-16.39l6.94-33.67c7.76-37.66-5.01-76.93-34.21-101.95C142.91,9.01,121.48,0,98.18,0h0Z"/>
    </g>
  </g>
</svg>