<?xml version="1.0" encoding="UTF-8"?>
<svg id="Layer_2" data-name="Layer 2" xmlns="http://www.w3.org/2000/svg" viewBox="0 0 200 222.11">
  <defs>
    <style>
      .cls-1 {
        fill: #f0f;
      }
    </style>
  </defs>
  <g id="Heads">
    <g id="head7">
      <path class="cls-1" d="M100,219.61c-30.74,0-54.89-7.15-71.78-21.25-17.07-14.25-25.72-34.89-25.72-61.34v-43.45c0-25.6,10.11-48.92,28.47-65.65C48.97,11.53,73.48,2.5,100,2.5s51.04,9.03,69.03,25.42c18.36,16.73,28.47,40.04,28.47,65.65v43.45c0,26.45-8.65,47.08-25.72,61.34-16.89,14.1-41.04,21.25-71.78,21.25Z"/>
      <path d="M100,5c25.9,0,49.81,8.8,67.34,24.77,17.83,16.25,27.66,38.91,27.66,63.8v43.45c0,25.67-8.35,45.66-24.82,59.42-16.19,13.52-40.46,20.67-70.18,20.67s-53.98-7.15-70.18-20.67c-16.47-13.76-24.82-33.75-24.82-59.42v-43.45c0-24.89,9.82-47.55,27.66-63.8C50.19,13.8,74.1,5,100,5M100,0C44.77,0,0,38.34,0,93.57v43.45c0,55.23,37.64,85.09,100,85.09h0c62.36,0,100-29.86,100-85.09v-43.45C200,38.34,155.23,0,100,0h0Z"/>
    </g>
  </g>
</svg>