<?xml version="1.0" encoding="UTF-8"?>
<svg id="Layer_2" data-name="Layer 2" xmlns="http://www.w3.org/2000/svg" viewBox="0 0 200 272.71">
  <defs>
    <style>
      .cls-1 {
        fill: #f0f;
      }
    </style>
  </defs>
  <g id="Heads">
    <g id="head2">
      <path class="cls-1" d="M100,270.21c-7.67,0-31.77-11-55.29-30.89-15.76-13.33-42.21-40.27-42.21-70.99v-62.48c0-26.06,10.43-52.28,28.62-71.94C49.87,13.66,74.33,2.5,100,2.5s50.13,11.16,68.88,31.42c18.19,19.66,28.62,45.89,28.62,71.94v62.48c0,30.72-26.45,57.66-42.21,70.99-23.52,19.89-47.62,30.89-55.29,30.89Z"/>
      <path d="M100,5c24.97,0,48.78,10.87,67.04,30.61,17.77,19.21,27.96,44.81,27.96,70.24v62.48c0,29.71-25.89,56.03-41.32,69.08-22.2,18.77-46.23,30.29-53.68,30.29s-31.47-11.52-53.68-30.29c-15.43-13.05-41.32-39.37-41.32-69.08v-62.48c0-25.43,10.19-51.04,27.96-70.24C51.22,15.87,75.03,5,100,5M100,0C44.77,0,0,50.63,0,105.86v62.48c0,55.23,81.59,104.37,100,104.37s100-49.14,100-104.37v-62.48C200,50.63,155.23,0,100,0h0Z"/>
    </g>
  </g>
</svg>