<?xml version="1.0" encoding="UTF-8"?>
<svg id="Layer_2" data-name="Layer 2" xmlns="http://www.w3.org/2000/svg" viewBox="0 0 226.2 247.41">
  <defs>
    <style>
      .cls-1 {
        fill: #f0f;
      }
    </style>
  </defs>
  <g id="Heads">
    <g id="head8">
      <path class="cls-1" d="M86.24,244.91c-26.37,0-46.98-8.91-61.24-26.49-12.92-15.93-20.44-38.47-22.35-67-.57-8.48.42-16.9,2.93-25.02l7.16-23.19c1.62-5.24,2.68-10.99,3.15-17.11C19.61,37.66,60.5,2.5,113.1,2.5s93.49,35.16,97.22,83.61c.47,6.11,1.53,11.87,3.15,17.11l7.16,23.19c2.51,8.13,3.49,16.54,2.93,25.02-1.91,28.53-9.42,51.07-22.35,67-14.26,17.58-34.87,26.49-61.24,26.49h-53.71Z"/>
      <path d="M113.1,5c24.59,0,47.64,8.03,64.89,22.62,17.46,14.76,28.06,35.6,29.83,58.68.48,6.3,1.58,12.24,3.25,17.65l7.16,23.19c2.42,7.83,3.37,15.95,2.82,24.12-1.87,28-9.2,50.07-21.79,65.59-13.77,16.97-33.72,25.57-59.3,25.57h-53.71c-25.58,0-45.54-8.6-59.3-25.57-12.59-15.52-19.93-37.59-21.8-65.59-.55-8.17.4-16.28,2.82-24.12l7.16-23.19c1.67-5.42,2.77-11.35,3.25-17.65,1.77-23.08,12.37-43.92,29.83-58.68C65.47,13.03,88.51,5,113.1,5M113.1,0C60.46,0,17.32,34.83,13.39,85.91c-.43,5.62-1.38,11.18-3.04,16.56l-7.16,23.19c-2.59,8.38-3.62,17.17-3.03,25.92,3.65,54.65,28.73,95.82,86.09,95.82h53.71c57.36,0,82.44-41.17,86.09-95.82.58-8.75-.45-17.54-3.03-25.92l-7.16-23.19c-1.66-5.38-2.61-10.95-3.04-16.56C208.88,34.83,165.74,0,113.1,0h0Z"/>
    </g>
  </g>
</svg>