<?xml version="1.0" encoding="UTF-8"?>
<svg id="Layer_2" data-name="Layer 2" xmlns="http://www.w3.org/2000/svg" viewBox="0 0 200 250">
  <defs>
    <style>
      .cls-1 {
        fill: #f0f;
      }
    </style>
  </defs>
  <g id="Heads">
    <g id="head3">
      <path class="cls-1" d="M100,247.5c-28.62,0-52.74-6.78-69.76-19.62-18.41-13.89-27.74-33.92-27.74-59.55v-62.48c0-26.06,10.43-52.28,28.62-71.94C49.87,13.66,74.33,2.5,100,2.5s50.13,11.16,68.88,31.42c18.19,19.66,28.62,45.88,28.62,71.94v62.48c0,25.63-9.33,45.66-27.74,59.55-17.01,12.83-41.13,19.62-69.76,19.62Z"/>
      <path d="M100,5c24.97,0,48.78,10.87,67.04,30.61,17.77,19.21,27.96,44.81,27.96,70.24v62.48c0,24.8-9,44.16-26.75,57.55-16.58,12.5-40.18,19.11-68.25,19.11s-51.68-6.61-68.25-19.11c-17.75-13.39-26.75-32.75-26.75-57.55v-62.48c0-25.43,10.19-51.04,27.96-70.24C51.22,15.87,75.03,5,100,5M100,0C44.77,0,0,50.63,0,105.86v62.48c0,55.23,43.3,81.67,100,81.67s100-26.44,100-81.67v-62.48C200,50.63,155.23,0,100,0h0Z"/>
    </g>
  </g>
</svg>