<?xml version="1.0" encoding="UTF-8"?>
<svg id="Layer_2" data-name="Layer 2" xmlns="http://www.w3.org/2000/svg" viewBox="0 0 200 297.98">
  <defs>
    <style>
      .cls-1 {
        fill: #f0f;
      }
    </style>
  </defs>
  <g id="Heads">
    <g id="head6">
      <path class="cls-1" d="M100,295.48c-12.83,0-37.09-22.64-59-55.05C17.25,205.31,2.5,168.46,2.5,144.27v-38.41c0-26.06,10.43-52.28,28.62-71.94C49.87,13.66,74.33,2.5,100,2.5s50.13,11.16,68.88,31.42c18.19,19.66,28.62,45.88,28.62,71.94v38.41c0,24.19-14.75,61.04-38.5,96.17-21.91,32.41-46.17,55.05-59,55.05Z"/>
      <path d="M100,5c24.97,0,48.78,10.87,67.04,30.61,17.77,19.21,27.96,44.81,27.96,70.24v38.41c0,23.71-14.59,60.03-38.07,94.77-10.45,15.46-21.91,29.33-32.27,39.05-10.09,9.47-19.08,14.9-24.66,14.9s-14.57-5.43-24.66-14.9c-10.36-9.72-21.82-23.59-32.27-39.05C19.59,204.3,5,167.98,5,144.27v-38.41c0-25.43,10.19-51.04,27.96-70.24C51.22,15.87,75.03,5,100,5M100,0C44.77,0,0,50.63,0,105.86v38.41c0,55.23,70.48,153.71,100,153.71s100-98.49,100-153.71v-38.41C200,50.63,155.23,0,100,0h0Z"/>
    </g>
  </g>
</svg>