<?xml version="1.0" encoding="UTF-8"?>
<svg id="Layer_2" data-name="Layer 2" xmlns="http://www.w3.org/2000/svg" viewBox="0 0 200 250">
  <defs>
    <style>
      .cls-1 {
        fill: #f0f;
      }
    </style>
  </defs>
  <g id="Heads">
    <g id="head1">
      <path class="cls-1" d="M100,247.5c-18.62,0-97.5-26.39-97.5-79.17v-62.48c0-26.06,10.43-52.28,28.62-71.94C49.87,13.66,74.33,2.5,100,2.5s50.13,11.16,68.88,31.42c18.19,19.66,28.62,45.88,28.62,71.94v62.48c0,52.78-78.88,79.17-97.5,79.17Z"/>
      <path d="M100,5c24.97,0,48.78,10.87,67.04,30.61,17.77,19.21,27.96,44.81,27.96,70.24v62.48c0,27.31-22.11,46.21-40.65,57.25-22.77,13.56-47.01,19.42-54.35,19.42s-31.58-5.86-54.35-19.42c-18.55-11.04-40.65-29.94-40.65-57.25v-62.48c0-25.43,10.19-51.04,27.96-70.24C51.22,15.87,75.03,5,100,5M100,0C44.77,0,0,50.63,0,105.86v62.48c0,55.23,81.59,81.67,100,81.67s100-26.44,100-81.67v-62.48C200,50.63,155.23,0,100,0h0Z"/>
    </g>
  </g>
</svg>