<?xml version="1.0" encoding="UTF-8"?>
<svg id="Layer_2" data-name="Layer 2" xmlns="http://www.w3.org/2000/svg" viewBox="0 0 200 268.46">
  <defs>
    <style>
      .cls-1 {
        fill: #f0f;
      }
    </style>
  </defs>
  <g id="Heads">
    <g id="head4">
      <path class="cls-1" d="M96.77,265.96c-6.64,0-12.9-2.91-17.19-7.98-1.64-1.94-3.63-4.6-5.94-7.68-8.51-11.35-20.16-26.9-31.74-30.14-21.38-5.98-36.31-27.29-36.31-51.81v-.12s-3.09-62.41-3.09-62.41c.02-26.04,10.45-52.23,28.62-71.88C49.87,13.66,74.33,2.5,100,2.5s50.13,11.16,68.88,31.42c18.18,19.65,28.61,45.84,28.62,71.88l-3.09,62.54c0,25.82-18.47,46.62-36.33,51.82-11.77,3.42-23.25,18.83-31.64,30.08-2.34,3.14-4.36,5.85-6.01,7.79-4.3,5.05-10.55,7.94-17.16,7.94h-6.5Z"/>
      <path d="M100,5c24.97,0,48.78,10.87,67.04,30.61,17.74,19.18,27.93,44.73,27.96,70.12l-3.09,62.35v.12s0,.12,0,.12c0,11.15-3.74,22.41-10.53,31.68-6.45,8.81-14.97,15.11-24,17.74-12.57,3.66-24.34,19.45-32.94,30.98-2.31,3.1-4.31,5.78-5.91,7.66-3.82,4.49-9.38,7.07-15.25,7.07h-6.5c-5.9,0-11.47-2.59-15.28-7.1-1.59-1.89-3.57-4.52-5.85-7.57-8.72-11.64-20.67-27.58-33.07-31.05-9.4-2.63-18.02-8.79-24.27-17.34-6.68-9.14-10.21-20.23-10.21-32.06v-.25s-3.09-62.35-3.09-62.35c.03-25.39,10.22-50.95,27.96-70.12C51.22,15.87,75.03,5,100,5M100,0C44.77,0,0,50.63,0,105.86l3.09,62.48c0,26.96,17.08,48.33,38.13,54.22,13.8,3.86,28.78,27.96,36.45,37.03,4.75,5.62,11.74,8.87,19.1,8.87h6.5c7.34,0,14.3-3.23,19.06-8.82,7.55-8.87,22.29-32.96,36.44-37.08,20.2-5.88,38.13-28.28,38.13-54.22l3.09-62.48C200,50.63,155.23,0,100,0h0Z"/>
    </g>
  </g>
</svg>