<?xml version="1.0" encoding="UTF-8"?>
<svg id="Layer_2" data-name="Layer 2" xmlns="http://www.w3.org/2000/svg" viewBox="0 0 144.65 117.59">
  <g id="Layer_12" data-name="Layer 12">
    <g id="in">
      <path d="M66.34,51.25h0S18.21,3.12,18.21,3.12C14.04-1.04,7.29-1.04,3.12,3.12h0C-1.04,7.29-1.04,14.04,3.12,18.21l40.59,40.59L3.12,99.38c-4.17,4.17-4.17,10.92,0,15.08h0c4.17,4.17,10.92,4.17,15.08,0l48.13-48.13h0c4.17-4.17,4.17-10.92,0-15.08Z"/>
      <path d="M78.31,66.34h0s48.13,48.13,48.13,48.13c4.17,4.17,10.92,4.17,15.08,0h0c4.17-4.17,4.17-10.92,0-15.08l-40.59-40.59,40.59-40.59c4.17-4.17,4.17-10.92,0-15.08h0c-4.17-4.17-10.92-4.17-15.08,0l-48.13,48.13h0c-4.17,4.17-4.17,10.92,0,15.08Z"/>
    </g>
  </g>
</svg>