<?xml version="1.0" encoding="UTF-8"?>
<svg id="Layer_2" data-name="Layer 2" xmlns="http://www.w3.org/2000/svg" viewBox="0 0 253.24 93.49">
  <defs>
    <style>
      .cls-1 {
        fill: #f0f;
        stroke: #000;
        stroke-miterlimit: 10;
        stroke-width: 5px;
      }
    </style>
  </defs>
  <g id="Misc.">
    <g id="misc6">
      <path class="cls-1" d="M42.19,89.22c15.46-8.69,36.61-25.58,43.58-55.01,1.86-7.83-3.24-15.61-11.17-16.93L18.61,2.69C9.27,1.14,1.16,9.22,2.68,18.56l19.16,60.78c1.54,9.44,12.01,14.57,20.35,9.88Z"/>
      <path class="cls-1" d="M211.05,89.22c-15.46-8.69-36.61-25.58-43.58-55.01-1.86-7.83,3.24-15.61,11.17-16.93l55.99-14.59c9.34-1.55,17.44,6.52,15.92,15.87l-19.16,60.78c-1.54,9.44-12.01,14.57-20.35,9.88Z"/>
    </g>
  </g>
</svg>