<?xml version="1.0" encoding="UTF-8"?>
<svg id="Layer_2" data-name="Layer 2" xmlns="http://www.w3.org/2000/svg" viewBox="0 0 228.46 124.5">
  <defs>
    <style>
      .cls-1 {
        fill: #f0f;
        stroke: #000;
        stroke-miterlimit: 10;
        stroke-width: 5px;
      }
    </style>
  </defs>
  <g id="Misc.">
    <path id="misc3" class="cls-1" d="M225.67,41.77l-13.86-29.37c-.91-1.94-3.51-2.32-4.94-.73l-6.34,7.01c-9.38-2.94-53.63-16.19-89.75-16.19S38.99,14.21,29.55,17.43l-8.03-7.3c-1.42-1.29-3.67-.94-4.63.73L2.9,35.34c-.38.67-.49,1.45-.31,2.2l8.82,36.32c.31,1.27,1.41,2.2,2.71,2.29l21.19,1.43c1.21.08,2.26.89,2.64,2.04l6.89,20.62c.43,1.28,1.66,2.12,3,2.05l18.02-.95c.88-.05,1.74.3,2.34.94l17.67,18.78c.87.92,2.22,1.2,3.38.7l28-12.14c.71-.31,1.52-.33,2.25-.06l18.6,6.98c.99.37,2.1.19,2.93-.47l29.34-23.44c.42-.34.93-.56,1.47-.63l18.08-2.47c.97-.13,1.81-.72,2.26-1.59l13.61-26.16c.18-.35.43-.65.72-.91l18.36-15.53c1.04-.88,1.36-2.34.78-3.57ZM173.31,35.73l-8.12,23.57c-.38,1.11-1.38,1.9-2.56,2.01l-11.68,1.1c-.8.08-1.53.47-2.04,1.09l-12.7,15.52c-.82,1-2.18,1.36-3.39.91l-16.15-6.11c-.41-.16-.85-.22-1.29-.19l-21.2,1.64c-.95.07-1.87-.3-2.49-1.02l-11.71-13.41c-.41-.47-.96-.8-1.57-.95l-18.51-4.36c-.83-.2-1.54-.74-1.95-1.49l-11.24-20.78c-.16-.3-.37-.56-.62-.79l-.29-.27c13.09-6.6,40.94-18.66,69.81-18.66s51.49,11.61,63.01,18.51l-3.85,1.99c-.69.35-1.21.96-1.46,1.69Z"/>
  </g>
</svg>