<?xml version="1.0" encoding="UTF-8"?>
<svg id="Layer_2" data-name="Layer 2" xmlns="http://www.w3.org/2000/svg" viewBox="0 0 57.14 54.01">
  <defs>
    <style>
      .cls-1 {
        fill: #f0f;
      }
    </style>
  </defs>
  <g id="Misc.">
    <path id="misc5" class="cls-1" d="M55.89,21.09l-11.37-5.2,10.22-10.84c1.05-1.38.79-3.35-.59-4.41s-3.35-.79-4.41.59l-12.33,11.4-12.1-5.54c-1.19-.91-2.89-.68-3.8.51h0c-.91,1.19-.68,2.89.51,3.8l11.47,4.85L.13,47.08c-.6.79.86,2.91,3.27,4.75s4.84,2.68,5.44,1.9L41.13,19.48l12.09,5.11c1.22.93,2.81.91,3.55-.06s.34-2.5-.88-3.44Z"/>
  </g>
</svg>