<?xml version="1.0" encoding="UTF-8"?>
<svg id="Layer_2" data-name="Layer 2" xmlns="http://www.w3.org/2000/svg" viewBox="0 0 228.46 117.65">
  <defs>
    <style>
      .cls-1 {
        fill: #f0f;
        stroke: #000;
        stroke-miterlimit: 10;
        stroke-width: 5px;
      }
    </style>
  </defs>
  <g id="Misc.">
    <path id="misc2" class="cls-1" d="M21.51,3.28l24.57,22.34c.25.23.46.5.62.79l11.24,20.78c.41.75,1.12,1.3,1.95,1.49l18.51,4.36c.61.14,1.16.48,1.57.95l11.71,13.41c.62.71,1.55,1.09,2.49,1.02l21.2-1.64c.44-.03.88.03,1.29.19l16.15,6.11c1.21.46,2.57.09,3.39-.91l12.7-15.52c.51-.62,1.24-1.01,2.04-1.09l11.68-1.1c1.17-.11,2.17-.9,2.56-2.01l8.12-23.57c.25-.73.77-1.34,1.46-1.69l21.81-11.26c.32-.17.61-.39.85-.66l9.44-10.45c1.44-1.59,4.03-1.21,4.94.73l13.86,29.37c.58,1.23.26,2.69-.78,3.57l-18.36,15.53c-.3.25-.54.56-.72.91l-13.61,26.16c-.45.86-1.29,1.46-2.26,1.59l-18.08,2.47c-.54.07-1.04.29-1.47.63l-29.34,23.44c-.83.66-1.94.84-2.93.47l-18.6-6.98c-.73-.27-1.53-.25-2.25.06l-28,12.14c-1.16.5-2.51.22-3.38-.7l-17.67-18.78c-.61-.64-1.46-.99-2.34-.94l-18.02.95c-1.35.07-2.58-.77-3-2.05l-6.89-20.62c-.39-1.15-1.43-1.96-2.64-2.04l-21.19-1.43c-1.31-.09-2.41-1.01-2.71-2.29L2.58,30.69c-.18-.75-.07-1.53.31-2.2L16.89,4.01c.95-1.67,3.2-2.02,4.63-.73Z"/>
  </g>
</svg>