<?xml version="1.0" encoding="UTF-8"?>
<svg id="Layer_2" data-name="Layer 2" xmlns="http://www.w3.org/2000/svg" viewBox="0 0 67.68 42.86">
  <defs>
    <style>
      .cls-1 {
        fill: none;
        stroke: #000;
        stroke-miterlimit: 10;
        stroke-width: 5px;
      }
    </style>
  </defs>
  <g id="Mouths">
    <g id="mouth5">
      <path d="M16.28,3.17c.27.72.47,1.48.65,2.22.2.83.37,1.67.51,2.52.03.2.13,1.05.04.22.02.21.05.41.07.62.06.57.11,1.14.13,1.71.05,1.14.03,2.29-.09,3.42-.02.15-.03.3-.05.45-.04.39.11-.63,0-.03-.05.27-.09.55-.15.82-.12.61-.28,1.22-.46,1.82-.09.27-.18.54-.28.81-.07.18-.14.36-.21.54.03-.08.22-.48.02-.06-.29.59-.59,1.17-.94,1.73-.18.28-.37.56-.57.83.33-.45-.22.27-.32.38-.5.57-1.05,1.09-1.62,1.59-.43.37-.11.12-.59.44-.4.27-.8.53-1.22.77-.72.42-1.63.85-2.12,1.03-2.12.79-4.34,1.31-6.59,1.56-1.34.15-2.5,1.04-2.5,2.5,0,1.24,1.15,2.65,2.5,2.5,7.5-.83,15.22-3.81,18.45-11.17,2.13-4.86,2.12-10.3,1.02-15.42-.23-1.06-.49-2.12-.86-3.14-.47-1.27-1.69-2.13-3.08-1.75-1.22.33-2.22,1.8-1.75,3.08h0Z"/>
      <path class="cls-1" d="M66.37,27.36s-30.86,18.89-48.13-5.78"/>
      <path d="M46.14,38.6c.67-.52-.21.09-.43.2-.14.07-.28.13-.43.2.5-.23-.13.04-.25.09-.44.16-.89.28-1.35.39-.26.06-.53.12-.8.16-.16.03-.31.05-.47.08-.11.02-.09.01.05,0-.1.01-.2.02-.29.03-.74.08-1.49.12-2.24.12-1.98,0-3.94-.24-5.88-.63-.79-.16-1.62.23-1.85,1.05-.2.74.25,1.68,1.05,1.85,3.67.74,7.54,1.1,11.23.25,1.34-.31,2.7-.79,3.79-1.64.64-.5.52-1.6,0-2.12-.63-.63-1.48-.5-2.12,0h0Z"/>
    </g>
  </g>
</svg>