<?xml version="1.0" encoding="UTF-8"?>
<svg id="Layer_2" data-name="Layer 2" xmlns="http://www.w3.org/2000/svg" viewBox="0 0 72.2 22.04">
  <g id="Mouths">
    <g id="mouth9">
      <path d="M.72,11.62c7.75,6.54,19.67,10.08,28.82,4.39,4.64-2.88,7.94-7.45,10.34-12.27l-4.57-.6c2.32,9.76,9.89,21.29,21.41,18.47,5.83-1.43,10.73-5.75,14.77-9.98,2.22-2.33-1.31-5.87-3.54-3.54-1.96,2.06-4.04,4.05-6.38,5.68-.87.61-1.78,1.17-2.72,1.67-1.04.55-1.35.69-2.38,1.03-.76.25-1.54.44-2.33.56.63-.09-.35.02-.53.03-.44.02-.89.02-1.33-.02-.18-.01-.37-.03-.55-.05.61.07.26.04.13,0-.35-.07-.7-.14-1.04-.24s-.66-.21-.99-.34c-.13-.05-.42-.2.12.05-.21-.1-.42-.19-.62-.3-.56-.29-1.08-.64-1.6-1-.49-.34.42.35-.04-.03-.13-.11-.27-.22-.39-.33-.26-.23-.51-.46-.76-.7-.45-.45-.86-.92-1.28-1.41-.08-.1-.45-.57-.04-.04-.1-.14-.21-.28-.31-.41-.2-.28-.4-.56-.59-.84-.72-1.08-1.35-2.21-1.92-3.38-.26-.53-.49-1.06-.73-1.59.26.57.04.09-.08-.19s-.23-.58-.34-.87c-.43-1.16-.84-2.35-1.12-3.55-.48-2.02-3.61-2.52-4.57-.6-1.85,3.71-4.42,7.6-7.65,9.88-.68.48-1.4.92-2.14,1.3-.95.49-.99.5-2.02.83-.67.21-1.35.37-2.05.51-.15.03-.3.05-.45.08.57-.09-.17.02-.24.02-.37.03-.75.06-1.12.08-.7.02-1.4,0-2.09-.04-.33-.02-.65-.06-.97-.1.55.07-.55-.1-.71-.13-1.32-.25-2.62-.62-3.89-1.08-.31-.11-.62-.23-.92-.35-.12-.05-.24-.1-.36-.15.51.21.18.07.07.03-.59-.26-1.17-.53-1.74-.83-.92-.47-1.82-.99-2.7-1.54-.7-.44-1.38-.92-2.05-1.41s.41.33-.07-.06c-.07-.05-.14-.11-.2-.16-1.03-.87-2.52-1.01-3.54,0-.89.89-1.04,2.66,0,3.54h0Z"/>
    </g>
  </g>
</svg>