<?xml version="1.0" encoding="UTF-8"?>
<svg id="Layer_2" data-name="Layer 2" xmlns="http://www.w3.org/2000/svg" viewBox="0 0 95.48 38.46">
  <defs>
    <style>
      .cls-1 {
        fill: #fff;
        stroke: #000;
        stroke-miterlimit: 10;
        stroke-width: 5px;
      }
    </style>
  </defs>
  <g id="Mouths">
    <g id="mouth8">
      <path class="cls-1" d="M92.58,12.42c4.09,10.72-23.42,23.54-46.52,23.54-14.75,0-50.28-12.49-42.44-26.85,7.44-13.63,33.5-2.08,43.71-1.33,16.52,1.22,38.4-13.32,45.25,4.64Z"/>
      <g>
        <path d="M11.98,18.13c3.06.44,6.11.88,9.17,1.33,1.41.2,2.8-.35,3.23-1.83.35-1.23-.43-3.03-1.83-3.23-3.06-.44-6.11-.88-9.17-1.33-1.41-.2-2.8.35-3.23,1.83-.35,1.23.43,3.03,1.83,3.23h0Z"/>
        <path d="M15.22,11.48c-.39,3.19-.77,6.38-1.16,9.57-.17,1.42,1.33,2.61,2.62,2.62,1.56.02,2.46-1.22,2.62-2.62.39-3.19.77-6.38,1.16-9.57.17-1.42-1.33-2.61-2.62-2.62-1.56-.02-2.46,1.22-2.62,2.62h0Z"/>
      </g>
      <g>
        <path d="M32.77,22.75c3.08.19,6.17.39,9.25.58,3.37.21,3.36-5.04,0-5.25-3.08-.19-6.17-.39-9.25-.58-3.37-.21-3.36,5.04,0,5.25h0Z"/>
        <path d="M34.97,15.6c-.13,3.21-.26,6.42-.39,9.64-.14,3.38,5.12,3.37,5.25,0s.26-6.42.39-9.64c.14-3.38-5.12-3.37-5.25,0h0Z"/>
      </g>
      <g>
        <path d="M52.9,23.85c3.09-.11,6.17-.23,9.26-.34,3.37-.12,3.38-5.37,0-5.25-3.09.11-6.17.23-9.26.34-3.37.12-3.38,5.37,0,5.25h0Z"/>
        <path d="M54.62,16.24c.19,3.21.38,6.42.57,9.63s5.45,3.38,5.25,0-.38-6.42-.57-9.63-5.45-3.38-5.25,0h0Z"/>
      </g>
      <g>
        <path d="M71.27,22.53c3.05-.51,6.09-1.03,9.14-1.54,3.32-.56,1.91-5.62-1.4-5.06-3.05.51-6.09,1.03-9.14,1.54-3.32.56-1.91,5.62,1.4,5.06h0Z"/>
        <path d="M71.7,15.19c.61,3.16,1.21,6.31,1.82,9.47.64,3.31,5.7,1.91,5.06-1.4s-1.21-6.31-1.82-9.47c-.64-3.31-5.7-1.91-5.06,1.4h0Z"/>
      </g>
    </g>
  </g>
</svg>