<?xml version="1.0" encoding="UTF-8"?>
<svg id="Layer_2" data-name="Layer 2" xmlns="http://www.w3.org/2000/svg" viewBox="0 0 89.18 41.23">
  <defs>
    <style>
      .cls-1, .cls-2 {
        fill: #fff;
      }

      .cls-2 {
        stroke: #000;
        stroke-miterlimit: 10;
        stroke-width: 5px;
      }
    </style>
  </defs>
  <g id="Mouths">
    <g id="mouth2">
      <path class="cls-2" d="M2.78,3.45s57.65,22.86,80.76,15.49c0,0-14.98,24.51-50.54,18.98-8.76-1.36-15.03-4.14-19.52-7.56C-.25,19.89,2.78,3.45,2.78,3.45Z"/>
      <g>
        <line class="cls-1" x1="13.37" y1="13.64" x2="13.49" y2="30.36"/>
        <path d="M11.87,13.64c.04,4.87.07,9.75.11,14.62,0,.7.01,1.4.02,2.1.01,1.93,3.01,1.93,3,0-.04-4.87-.07-9.75-.11-14.62,0-.7-.01-1.4-.02-2.1-.01-1.93-3.01-1.93-3,0h0Z"/>
      </g>
      <g>
        <line class="cls-1" x1="23.88" y1="21.09" x2="24" y2="34.7"/>
        <path d="M22.38,21.09c.04,3.97.07,7.93.11,11.9,0,.57.01,1.14.02,1.71.02,1.93,3.02,1.93,3,0-.04-3.97-.07-7.93-.11-11.9,0-.57-.01-1.14-.02-1.71-.02-1.93-3.02-1.93-3,0h0Z"/>
      </g>
    </g>
  </g>
</svg>