<?xml version="1.0" encoding="UTF-8"?>
<svg id="Layer_2" data-name="Layer 2" xmlns="http://www.w3.org/2000/svg" viewBox="0 0 144.65 117.59">
  <g id="Layer_12" data-name="Layer 12">
    <g id="out">
      <path d="M3.12,51.25h0S51.25,3.12,51.25,3.12c4.17-4.17,10.92-4.17,15.08,0h0c4.17,4.17,4.17,10.92,0,15.08L25.75,58.79l40.59,40.59c4.17,4.17,4.17,10.92,0,15.08h0c-4.17,4.17-10.92,4.17-15.08,0L3.12,66.34h0c-4.17-4.17-4.17-10.92,0-15.08Z"/>
      <path d="M141.52,66.34h0s-48.13,48.13-48.13,48.13c-4.17,4.17-10.92,4.17-15.08,0h0c-4.17-4.17-4.17-10.92,0-15.08l40.59-40.59-40.59-40.59c-4.17-4.17-4.17-10.92,0-15.08h0c4.17-4.17,10.92-4.17,15.08,0l48.13,48.13h0c4.17,4.17,4.17,10.92,0,15.08Z"/>
    </g>
  </g>
</svg>