<?xml version="1.0" encoding="UTF-8"?>
<svg id="Layer_2" data-name="Layer 2" xmlns="http://www.w3.org/2000/svg" viewBox="0 0 155.59 134.93">
  <defs>
    <style>
      .cls-1 {
        fill: none;
        stroke: #000;
        stroke-miterlimit: 10;
        stroke-width: 15px;
      }
    </style>
  </defs>
  <g id="Layer_12" data-name="Layer 12">
    <g id="rotateLeft">
      <path d="M14.09,80.79h0S.25,20.46.25,20.46c-1.2-5.22,1.96-10.81,7.04-12.49h0c5.09-1.68,10.18,1.2,11.38,6.42l11.67,50.87,49.58-16.32c5.09-1.68,10.18,1.2,11.38,6.42h0c1.2,5.22-1.96,10.81-7.04,12.49l-58.79,19.35h0c-5.09,1.68-10.18-1.2-11.38-6.42Z"/>
      <path class="cls-1" d="M140.06,72.34c2.55-26.75-16.09-51.38-42.52-56.2-29.29-5.34-56.88,14.74-61.05,43.94,0,0,0,.01,0,.02l-6.11-.87c-.89-.13-1.52-.96-1.36-1.85C34.42,25.67,64.57,3.53,96.59,8.1c32.57,4.65,55.54,35.27,50.9,67.84-4.36,30.55-31.58,52.78-62.02,51.44-2.13-.09-3.73-2.02-3.49-4.14l.26-2.38c.1-.87.87-1.49,1.75-1.42,28.07,2.26,53.33-18.35,56.07-47.09Z"/>
    </g>
  </g>
</svg>