<?xml version="1.0" encoding="UTF-8"?>
<svg id="Layer_2" data-name="Layer 2" xmlns="http://www.w3.org/2000/svg" viewBox="0 0 143.29 96.47">
  <defs>
    <style>
      .cls-1 {
        stroke: #000;
        stroke-miterlimit: 10;
        stroke-width: 7px;
      }
    </style>
  </defs>
  <g id="Layer_12" data-name="Layer 12">
    <g id="squint">
      <path class="cls-1" d="M62.9,58.23h0S7.12,83.43,7.12,83.43c-4.83,2.18-4.83,5.72,0,7.9h0c4.83,2.18,12.66,2.18,17.48,0l47.04-21.25,47.04,21.25c4.83,2.18,12.66,2.18,17.48,0h0c4.83-2.18,4.83-5.72,0-7.9l-55.78-25.2h0c-4.83-2.18-12.66-2.18-17.48,0Z"/>
      <path class="cls-1" d="M80.39,38.24h0s55.78-25.2,55.78-25.2c4.83-2.18,4.83-5.72,0-7.9h0c-4.83-2.18-12.66-2.18-17.48,0l-47.04,21.25L24.6,5.14c-4.83-2.18-12.66-2.18-17.48,0h0c-4.83,2.18-4.83,5.72,0,7.9l55.78,25.2h0c4.83,2.18,12.66,2.18,17.48,0Z"/>
    </g>
  </g>
</svg>